<?xml version="1.0" encoding="UTF-8"?>
<svg version="1.1" xmlns="http://www.w3.org/2000/svg" width="40" height="40">
<path d="M0 0 C2.77389443 2.02419323 3.85519403 3.15185077 4.4375 6.5625 C3.93493775 9.36248966 3.19653565 10.26107595 1 12 C1.969375 12.78375 2.93875 13.5675 3.9375 14.375 C5.83962346 15.91288705 6.89629957 16.79259913 8 19 C8.18704404 21.69013339 8.08581391 24.29686177 8 27 C7 28 7 28 5.14233398 28.11352539 C4.35157471 28.10828857 3.56081543 28.10305176 2.74609375 28.09765625 C1.89208984 28.09443359 1.03808594 28.09121094 0.15820312 28.08789062 C-0.73962891 28.07951172 -1.63746094 28.07113281 -2.5625 28.0625 C-3.46419922 28.05798828 -4.36589844 28.05347656 -5.29492188 28.04882812 C-7.53001314 28.03700225 -9.76497437 28.0205222 -12 28 C-13.43304064 25.13391871 -13.30644155 23.18699217 -13 20 C-10.96006092 16.3421782 -9.49580738 14.33053826 -6 12 C-6.515625 11.443125 -7.03125 10.88625 -7.5625 10.3125 C-9 8 -9 8 -8.875 5.4375 C-7.19113871 0.74674354 -5.04128721 -0.86070757 0 0 Z " fill="#DCDCF6" transform="translate(20,6)"/>
<path d="M0 0 C0.99 0.33 1.98 0.66 3 1 C3 1.66 3 2.32 3 3 C3.99 3.33 4.98 3.66 6 4 C5.67 4.99 5.34 5.98 5 7 C4.34 7 3.68 7 3 7 C2.67 7.99 2.34 8.98 2 10 C1.34 9.67 0.68 9.34 0 9 C0 8.34 0 7.68 0 7 C-0.99 6.67 -1.98 6.34 -3 6 C-3 5.01 -3 4.02 -3 3 C-2.01 3 -1.02 3 0 3 C0 2.01 0 1.02 0 0 Z " fill="#DCDCF6" transform="translate(27,12)"/>
<path d="M0 0 C5.61 0 11.22 0 17 0 C17 0.33 17 0.66 17 1 C11.39 1 5.78 1 0 1 C0 0.67 0 0.34 0 0 Z " fill="#DBDBF6" transform="translate(9,35)"/>
<path d="M0 0 C0.33 0 0.66 0 1 0 C1 1.98 1 3.96 1 6 C0.67 6 0.34 6 0 6 C0 4.02 0 2.04 0 0 Z " fill="#DCDCF6" transform="translate(29,26)"/>
<path d="M0 0 C0.33 0 0.66 0 1 0 C1 1.98 1 3.96 1 6 C0.67 6 0.34 6 0 6 C0 4.02 0 2.04 0 0 Z " fill="#DCDCF6" transform="translate(5,26)"/>
<path d="M0 0 C0.66 0.66 1.32 1.32 2 2 C1.34 2 0.68 2 0 2 C0 1.34 0 0.68 0 0 Z " fill="#DCDCF6" transform="translate(22,17)"/>
<path d="M0 0 C0.33 0.66 0.66 1.32 1 2 C0.34 1.67 -0.32 1.34 -1 1 C-0.67 0.67 -0.34 0.34 0 0 Z " fill="#DBDBF6" transform="translate(12,17)"/>
<path d="" fill="#DCDCF7" transform="translate(0,0)"/>
<path d="" fill="#DDDDF6" transform="translate(0,0)"/>
<path d="M0 0 C3 1 3 1 3 1 Z " fill="#DDDDF7" transform="translate(16,4)"/>
<path d="" fill="#DCDCF6" transform="translate(0,0)"/>
<path d="" fill="#DDDDF6" transform="translate(0,0)"/>
<path d="" fill="#DCDCF7" transform="translate(0,0)"/>
<path d="" fill="#DDDDF7" transform="translate(0,0)"/>
<path d="" fill="#DCDCF7" transform="translate(0,0)"/>
<path d="" fill="#DCDCF7" transform="translate(0,0)"/>
<path d="" fill="#DCDCF7" transform="translate(0,0)"/>
<path d="" fill="#DCDCF6" transform="translate(0,0)"/>
<path d="" fill="#DCDCF7" transform="translate(0,0)"/>
<path d="" fill="#DCDCF4" transform="translate(0,0)"/>
<path d="" fill="#DCDCF6" transform="translate(0,0)"/>
<path d="" fill="#DCDCF7" transform="translate(0,0)"/>
<path d="" fill="#DCDCF6" transform="translate(0,0)"/>
<path d="" fill="#DCDCF6" transform="translate(0,0)"/>
<path d="" fill="#DCDCF5" transform="translate(0,0)"/>
<path d="" fill="#DCDCF6" transform="translate(0,0)"/>
<path d="" fill="#DCDCF7" transform="translate(0,0)"/>
<path d="" fill="#DBDBF4" transform="translate(0,0)"/>
<path d="" fill="#DCDCF6" transform="translate(0,0)"/>
<path d="" fill="#DCDCF7" transform="translate(0,0)"/>
<path d="" fill="#DCDCF7" transform="translate(0,0)"/>
<path d="" fill="#DDDDF7" transform="translate(0,0)"/>
<path d="" fill="#DCDCF6" transform="translate(0,0)"/>
<path d="" fill="#DCDCF6" transform="translate(0,0)"/>
<path d="" fill="#DDDDF4" transform="translate(0,0)"/>
<path d="" fill="#DCDCF5" transform="translate(0,0)"/>
<path d="" fill="#DCDCF5" transform="translate(0,0)"/>
<path d="" fill="#DCDCF7" transform="translate(0,0)"/>
<path d="" fill="#DCDCF7" transform="translate(0,0)"/>
</svg>
