<?xml version="1.0" encoding="UTF-8"?>
<svg version="1.1" xmlns="http://www.w3.org/2000/svg" width="32" height="32">
<path d="M0 0 C3 0.25 3 0.25 5 2.25 C5.22705078 4.31298828 5.22705078 4.31298828 5.1953125 6.8203125 C5.18564453 8.16416016 5.18564453 8.16416016 5.17578125 9.53515625 C5.15902344 10.47230469 5.14226563 11.40945313 5.125 12.375 C5.11597656 13.31988281 5.10695313 14.26476563 5.09765625 15.23828125 C5.07404522 17.57577292 5.04111516 19.91276123 5 22.25 C3.02 22.25 1.04 22.25 -1 22.25 C-1 16.97 -1 11.69 -1 6.25 C-0.34 6.25 0.32 6.25 1 6.25 C1 10.54 1 14.83 1 19.25 C1.66 19.25 2.32 19.25 3 19.25 C2.67 13.97 2.34 8.69 2 3.25 C0.68 3.25 -0.64 3.25 -2 3.25 C-2.0269501 6.18756119 -2.04681474 9.12487555 -2.0625 12.0625 C-2.07506836 13.31256836 -2.07506836 13.31256836 -2.08789062 14.58789062 C-2.09272461 15.79155273 -2.09272461 15.79155273 -2.09765625 17.01953125 C-2.10289307 17.75792236 -2.10812988 18.49631348 -2.11352539 19.25708008 C-2.07523213 21.46057409 -2.07523213 21.46057409 -1 24.25 C0.98 24.25 2.96 24.25 5 24.25 C6.18695553 20.68913342 6.35095418 17.27668976 6.5625 13.5625 C6.60568359 12.86060547 6.64886719 12.15871094 6.69335938 11.43554688 C6.7991736 9.70724794 6.90006581 7.9786489 7 6.25 C7.66 6.25 8.32 6.25 9 6.25 C9.08710289 9.35398978 9.14042309 12.45766548 9.1875 15.5625 C9.21263672 16.44357422 9.23777344 17.32464844 9.26367188 18.23242188 C9.27817383 19.50375977 9.27817383 19.50375977 9.29296875 20.80078125 C9.31653442 21.97120972 9.31653442 21.97120972 9.34057617 23.1652832 C8.91300256 25.78252409 8.06684508 26.64217398 6 28.25 C4.0625 28.6484375 4.0625 28.6484375 2 28.625 C1.319375 28.63273437 0.63875 28.64046875 -0.0625 28.6484375 C-2.62808761 28.12083682 -3.3979175 27.31141499 -5 25.25 C-5.37231445 22.82983398 -5.37231445 22.82983398 -5.36328125 19.99609375 C-5.36231445 18.46758789 -5.36231445 18.46758789 -5.36132812 16.90820312 C-5.34521484 15.84537109 -5.32910156 14.78253906 -5.3125 13.6875 C-5.31572266 12.62080078 -5.31894531 11.55410156 -5.32226562 10.45507812 C-5.25248026 0.43770669 -5.25248026 0.43770669 0 0 Z " fill="#AEAEAE" transform="translate(14,1.75)"/>
</svg>
