<svg xmlns="http://www.w3.org/2000/svg" xmlns:xlink="http://www.w3.org/1999/xlink" width="248.136" height="239" viewBox="0 0 248.136 239">
  <defs>
    <filter id="Path_8" x="10.743" y="41.019" width="237.393" height="161.425" filterUnits="userSpaceOnUse">
      <feOffset dy="3" input="SourceAlpha"/>
      <feGaussianBlur stdDeviation="3" result="blur"/>
      <feFlood flood-opacity="0.161"/>
      <feComposite operator="in" in2="blur"/>
      <feComposite in="SourceGraphic"/>
    </filter>
  </defs>
  <g id="Group_2" data-name="Group 2" transform="translate(-1074 -69)">
    <g id="Sample_pfp" data-name="Sample pfp" transform="translate(201 -245)">
      <g id="Path_9" data-name="Path 9" transform="translate(873 314)" fill="#ffbebe">
        <path d="M 119.5 238.5 C 111.4256744384766 238.5 103.356559753418 237.6865844726562 95.51682281494141 236.0823211669922 C 87.87655639648438 234.5189056396484 80.36138153076172 232.1860656738281 73.17996978759766 229.1485900878906 C 66.12885284423828 226.1661987304688 59.32799911499023 222.4748229980469 52.96632385253906 218.1769714355469 C 46.66493988037109 213.9198455810547 40.73941040039062 209.0308227539062 35.35429382324219 203.6457061767578 C 29.96917724609375 198.2605895996094 25.08014678955078 192.3350524902344 20.82302856445312 186.0336761474609 C 16.52517700195312 179.6719970703125 12.83379459381104 172.8711395263672 9.851411819458008 165.8200225830078 C 6.81394100189209 158.6386108398438 4.481088161468506 151.1234436035156 2.917676448822021 143.4831695556641 C 1.313411712646484 135.6434478759766 0.5 127.5743255615234 0.5 119.5 C 0.5 111.4256744384766 1.313411712646484 103.356559753418 2.917676448822021 95.51682281494141 C 4.481088161468506 87.87655639648438 6.81394100189209 80.36138153076172 9.851411819458008 73.17996978759766 C 12.83379459381104 66.12885284423828 16.52517700195312 59.32799911499023 20.82302856445312 52.96632385253906 C 25.08014678955078 46.66493988037109 29.96917724609375 40.73941040039062 35.35429382324219 35.35429382324219 C 40.73941040039062 29.96917724609375 46.66493988037109 25.08014678955078 52.96632385253906 20.82302856445312 C 59.32799911499023 16.52517700195312 66.12885284423828 12.83379459381104 73.17996978759766 9.851411819458008 C 80.36138153076172 6.81394100189209 87.87655639648438 4.481088161468506 95.51682281494141 2.917676448822021 C 103.356559753418 1.313411712646484 111.4256744384766 0.5 119.5 0.5 C 127.5743255615234 0.5 135.6434478759766 1.313411712646484 143.4831695556641 2.917676448822021 C 151.1234436035156 4.481088161468506 158.6386108398438 6.81394100189209 165.8200225830078 9.851411819458008 C 172.8711395263672 12.83379459381104 179.6719970703125 16.52517700195312 186.0336761474609 20.82302856445312 C 192.3350524902344 25.08014678955078 198.2605895996094 29.96917724609375 203.6457061767578 35.35429382324219 C 209.0308227539062 40.73941040039062 213.9198455810547 46.66493988037109 218.1769714355469 52.96632385253906 C 222.4748229980469 59.32799911499023 226.1661987304688 66.12885284423828 229.1485900878906 73.17996978759766 C 232.1860656738281 80.36138153076172 234.5189056396484 87.87655639648438 236.0823211669922 95.51682281494141 C 237.6865844726562 103.356559753418 238.5 111.4256744384766 238.5 119.5 C 238.5 127.5743255615234 237.6865844726562 135.6434478759766 236.0823211669922 143.4831695556641 C 234.5189056396484 151.1234436035156 232.1860656738281 158.6386108398438 229.1485900878906 165.8200225830078 C 226.1661987304688 172.8711395263672 222.4748229980469 179.6719970703125 218.1769714355469 186.0336761474609 C 213.9198455810547 192.3350524902344 209.0308227539062 198.2605895996094 203.6457061767578 203.6457061767578 C 198.2605895996094 209.0308227539062 192.3350524902344 213.9198455810547 186.0336761474609 218.1769714355469 C 179.6719970703125 222.4748229980469 172.8711395263672 226.1661987304688 165.8200225830078 229.1485900878906 C 158.6386108398438 232.1860656738281 151.1234436035156 234.5189056396484 143.4831695556641 236.0823211669922 C 135.6434478759766 237.6865844726562 127.5743255615234 238.5 119.5 238.5 Z" stroke="none"/>
        <path d="M 119.5 1 C 111.4592819213867 1 103.4238739013672 1.80999755859375 95.6170654296875 3.407501220703125 C 88.00912475585938 4.964309692382812 80.5257568359375 7.287277221679688 73.374755859375 10.31190490722656 C 66.35337829589844 13.28172302246094 59.58116149902344 16.95756530761719 53.2462158203125 21.23735046386719 C 46.97122192382812 25.47665405273438 41.07046508789062 30.34521484375 35.70783996582031 35.70783996582031 C 30.34521484375 41.07046508789062 25.47665405273438 46.97122192382812 21.23735046386719 53.2462158203125 C 16.95756530761719 59.58116149902344 13.28172302246094 66.35337829589844 10.31190490722656 73.374755859375 C 7.287277221679688 80.5257568359375 4.964309692382812 88.00912475585938 3.407501220703125 95.6170654296875 C 1.80999755859375 103.4238739013672 1 111.4592819213867 1 119.5 C 1 127.5407180786133 1.80999755859375 135.5760955810547 3.407501220703125 143.3829345703125 C 4.964309692382812 150.9908447265625 7.287277221679688 158.4742431640625 10.31190490722656 165.6252136230469 C 13.28172302246094 172.6466217041016 16.95756530761719 179.4188385009766 21.23735046386719 185.7537841796875 C 25.47665405273438 192.0287475585938 30.34521484375 197.9295349121094 35.70783996582031 203.2921600341797 C 41.07046508789062 208.6547546386719 46.97122192382812 213.5233459472656 53.2462158203125 217.7626647949219 C 59.58116149902344 222.0424346923828 66.35337829589844 225.7182769775391 73.374755859375 228.6880950927734 C 80.5257568359375 231.7127227783203 88.00912475585938 234.0356903076172 95.6170654296875 235.5924987792969 C 103.4238739013672 237.1900024414062 111.4592819213867 238 119.5 238 C 127.5407180786133 238 135.5760955810547 237.1900024414062 143.3829345703125 235.5924987792969 C 150.9908447265625 234.0356903076172 158.4742431640625 231.7127227783203 165.6252136230469 228.6880950927734 C 172.6466217041016 225.7182769775391 179.4188385009766 222.0424346923828 185.7537841796875 217.7626647949219 C 192.0287475585938 213.5233459472656 197.9295349121094 208.6547546386719 203.2921600341797 203.2921600341797 C 208.6547546386719 197.9295349121094 213.5233459472656 192.0287475585938 217.7626647949219 185.7537841796875 C 222.0424346923828 179.4188385009766 225.7182769775391 172.6466217041016 228.6880950927734 165.6252136230469 C 231.7127227783203 158.4742431640625 234.0356903076172 150.9908447265625 235.5924987792969 143.3829345703125 C 237.1900024414062 135.5760955810547 238 127.5407180786133 238 119.5 C 238 111.4592819213867 237.1900024414062 103.4238739013672 235.5924987792969 95.6170654296875 C 234.0356903076172 88.00912475585938 231.7127227783203 80.5257568359375 228.6880950927734 73.374755859375 C 225.7182769775391 66.35337829589844 222.0424346923828 59.58116149902344 217.7626647949219 53.2462158203125 C 213.5233459472656 46.97122192382812 208.6547546386719 41.07046508789062 203.2921600341797 35.70783996582031 C 197.9295349121094 30.34521484375 192.0287475585938 25.47665405273438 185.7537841796875 21.23735046386719 C 179.4188385009766 16.95756530761719 172.6466217041016 13.28172302246094 165.6252136230469 10.31190490722656 C 158.4742431640625 7.287277221679688 150.9908447265625 4.964309692382812 143.3829345703125 3.407501220703125 C 135.5760955810547 1.80999755859375 127.5407180786133 1 119.5 1 M 119.5 0 C 185.4980010986328 0 239 53.50196838378906 239 119.5 C 239 185.4980010986328 185.4980010986328 239 119.5 239 C 53.50196838378906 239 0 185.4980010986328 0 119.5 C 0 53.50196838378906 53.50196838378906 0 119.5 0 Z" stroke="none" fill="#fff"/>
      </g>
      <g transform="matrix(1, 0, 0, 1, 873, 314)" filter="url(#Path_8)">
        <path id="Path_8-2" data-name="Path 8" d="M894.2,369.591s26.712,110.752,74.627,80.862,68.684-79.139,14.626-87.476-37.192,98.688-49.589,131.584,99.43-40.7,132.573-54.265-27.749-38.57-37-27.495-61.979,66.289,0,71.795,81.256-61.777,81.256-61.777" transform="translate(-873 -314)" fill="none" stroke="#fff" stroke-width="3"/>
      </g>
    </g>
  </g>
</svg>
