<svg xmlns="http://www.w3.org/2000/svg" width="63.148" height="40.185" viewBox="0 0 63.148 40.185">
  <path id="ic_people_24px" d="M44.055,22.222a8.611,8.611,0,1,0-8.611-8.611A8.575,8.575,0,0,0,44.055,22.222Zm-22.963,0a8.611,8.611,0,1,0-8.611-8.611A8.575,8.575,0,0,0,21.092,22.222Zm0,5.741C14.4,27.963,1,31.321,1,38.009v7.176H41.185V38.009C41.185,31.321,27.78,27.963,21.092,27.963Zm22.963,0c-.832,0-1.78.057-2.784.144,3.33,2.411,5.655,5.655,5.655,9.9v7.176H64.148V38.009C64.148,31.321,50.743,27.963,44.055,27.963Z" transform="translate(-1 -5)"/>
</svg>
