<?xml version="1.0" encoding="UTF-8"?>
<svg version="1.1" xmlns="http://www.w3.org/2000/svg" width="32" height="32">
<path d="M0 0 C3.64581687 -0.02887512 7.29160463 -0.04675585 10.9375 -0.0625 C11.97841797 -0.07087891 13.01933594 -0.07925781 14.09179688 -0.08789062 C15.08115234 -0.09111328 16.07050781 -0.09433594 17.08984375 -0.09765625 C18.46450806 -0.10551147 18.46450806 -0.10551147 19.86694336 -0.11352539 C22 0 22 0 23 1 C23.09932153 2.69558726 23.13080007 4.39525747 23.1328125 6.09375 C23.13474609 7.63869141 23.13474609 7.63869141 23.13671875 9.21484375 C23.13285156 10.29894531 23.12898438 11.38304687 23.125 12.5 C23.13080078 14.12615234 23.13080078 14.12615234 23.13671875 15.78515625 C23.13542969 16.81511719 23.13414063 17.84507813 23.1328125 18.90625 C23.13168457 19.85822266 23.13055664 20.81019531 23.12939453 21.79101562 C23 24 23 24 22 25 C17.52731037 25.281489 13.04299265 25.23181434 8.5625 25.25 C7.29599609 25.270625 6.02949219 25.29125 4.72460938 25.3125 C3.51740234 25.31765625 2.31019531 25.3228125 1.06640625 25.328125 C-0.04790771 25.3374707 -1.16222168 25.34681641 -2.31030273 25.35644531 C-3.64170288 25.18000488 -3.64170288 25.18000488 -5 25 C-7.45391569 21.31912647 -7.22802759 18.55644412 -7.125 14.3125 C-7.11597656 13.61060547 -7.10695313 12.90871094 -7.09765625 12.18554688 C-7.07413704 10.45688475 -7.03826713 8.72839855 -7 7 C-6.01 6.67 -5.02 6.34 -4 6 C-3.67 10.95 -3.34 15.9 -3 21 C4.59 21 12.18 21 20 21 C20 15.39 20 9.78 20 4 C13.73 3.67 7.46 3.34 1 3 C0.67 2.01 0.34 1.02 0 0 Z " fill="#C1C1C1" transform="translate(9,5)"/>
<path d="M0 0 C3.60244452 0.30878096 4.99345998 0.99447732 7.8125 3.375 C10 6 10 6 10 9 C6.73045798 8.43628586 5.17424117 7.50037734 3 5 C2.4225 5.28875 1.845 5.5775 1.25 5.875 C-1.875 7.4375 -1.875 7.4375 -5 9 C-5.66 8.01 -6.32 7.02 -7 6 C-7.433125 6.495 -7.86625 6.99 -8.3125 7.5 C-10 9 -10 9 -13 9 C-12.46104623 5.2273236 -11.00464642 3.31787009 -8 1 C-5.60211564 1.21157803 -4.14415639 1.92792181 -2 3 C-1.34 2.01 -0.68 1.02 0 0 Z " fill="#C3C3C3" transform="translate(19,16)"/>
<path d="M0 0 C0.99 0 1.98 0 3 0 C3 0.99 3 1.98 3 3 C3.99 3 4.98 3 6 3 C5.67 3.99 5.34 4.98 5 6 C4.34 6 3.68 6 3 6 C3 6.66 3 7.32 3 8 C2.01 8 1.02 8 0 8 C0 7.34 0 6.68 0 6 C-0.66 6 -1.32 6 -2 6 C-2 5.01 -2 4.02 -2 3 C-1.34 3 -0.68 3 0 3 C0 2.01 0 1.02 0 0 Z " fill="#C1C1C1" transform="translate(2,2)"/>
<path d="M0 0 C2 0.25 2 0.25 4 1 C4.33 1.99 4.66 2.98 5 4 C4.01 5.485 4.01 5.485 3 7 C1.35 6.67 -0.3 6.34 -2 6 C-1.125 1.125 -1.125 1.125 0 0 Z " fill="#BFBFBF" transform="translate(11,9)"/>
</svg>
