<?xml version="1.0" encoding="UTF-8"?>
<svg version="1.1" xmlns="http://www.w3.org/2000/svg" width="40" height="40">
<path d="M0 0 C2.625 0.375 2.625 0.375 5 1 C5.625 3.375 5.625 3.375 6 6 C5.34 6.66 4.68 7.32 4 8 C1.375 7.625 1.375 7.625 -1 7 C-1.625 4.625 -1.625 4.625 -2 2 C-1.34 1.34 -0.68 0.68 0 0 Z " fill="#DCDCF6" transform="translate(8,16)"/>
<path d="M0 0 C1.65 0.33 3.3 0.66 5 1 C5.625 3.375 5.625 3.375 6 6 C5.34 6.66 4.68 7.32 4 8 C1.375 7.625 1.375 7.625 -1 7 C-1.625 5.1875 -1.625 5.1875 -2 3 C-1.34 2.01 -0.68 1.02 0 0 Z " fill="#DCDCF6" transform="translate(18,16)"/>
<path d="M0 0 C2.1875 0.3125 2.1875 0.3125 4 1 C5.125 5.75 5.125 5.75 4 8 C2.35 8 0.7 8 -1 8 C-1.66 6.35 -2.32 4.7 -3 3 C-1.75 1.4375 -1.75 1.4375 0 0 Z " fill="#DCDCF6" transform="translate(29,16)"/>
<path d="M0 0 C4 1 4 1 4 1 Z " fill="#DCDCF6" transform="translate(28,25)"/>
<path d="M0 0 C4 1 4 1 4 1 Z " fill="#DCDCF6" transform="translate(18,25)"/>
<path d="M0 0 C4 1 4 1 4 1 Z " fill="#DCDCF6" transform="translate(8,25)"/>
<path d="M0 0 C1 4 1 4 1 4 Z " fill="#DCDCF6" transform="translate(35,18)"/>
<path d="M0 0 C0.33 0.66 0.66 1.32 1 2 C0.34 1.67 -0.32 1.34 -1 1 C-0.67 0.67 -0.34 0.34 0 0 Z " fill="#DCDCF5" transform="translate(25,21)"/>
<path d="" fill="#DCDCF6" transform="translate(0,0)"/>
<path d="M0 0 C0.66 0 1.32 0 2 0 C1.67 0.66 1.34 1.32 1 2 C0.67 1.34 0.34 0.68 0 0 Z " fill="#DCDCF6" transform="translate(24,17)"/>
<path d="M0 0 C0.66 0 1.32 0 2 0 C1.67 0.66 1.34 1.32 1 2 C0.67 1.34 0.34 0.68 0 0 Z " fill="#DDDDF5" transform="translate(14,17)"/>
<path d="M0 0 C3 1 3 1 3 1 Z " fill="#DDDDF7" transform="translate(29,14)"/>
<path d="M0 0 C3 1 3 1 3 1 Z " fill="#DCDCF7" transform="translate(19,14)"/>
<path d="M0 0 C2 1 2 1 2 1 Z " fill="#DCDCF7" transform="translate(14,22)"/>
<path d="M0 0 C2 1 2 1 2 1 Z " fill="#DCDCF7" transform="translate(9,14)"/>
<path d="" fill="#DCDCF5" transform="translate(0,0)"/>
<path d="" fill="#DBDBF6" transform="translate(0,0)"/>
<path d="" fill="#DFDFF5" transform="translate(0,0)"/>
<path d="" fill="#DCDCF7" transform="translate(0,0)"/>
<path d="" fill="#DCDCF5" transform="translate(0,0)"/>
<path d="" fill="#DBDBF6" transform="translate(0,0)"/>
<path d="" fill="#DDDDF5" transform="translate(0,0)"/>
<path d="" fill="#DCDCF7" transform="translate(0,0)"/>
<path d="" fill="#DCDCF6" transform="translate(0,0)"/>
<path d="" fill="#DBDBF6" transform="translate(0,0)"/>
<path d="" fill="#DBDBF4" transform="translate(0,0)"/>
<path d="" fill="#DDDDF6" transform="translate(0,0)"/>
<path d="" fill="#DEDEF6" transform="translate(0,0)"/>
<path d="" fill="#DCDCF7" transform="translate(0,0)"/>
<path d="" fill="#DDDDF5" transform="translate(0,0)"/>
<path d="" fill="#DCDCF6" transform="translate(0,0)"/>
<path d="" fill="#DCDCF6" transform="translate(0,0)"/>
<path d="" fill="#DDDDF6" transform="translate(0,0)"/>
<path d="" fill="#DDDDF6" transform="translate(0,0)"/>
<path d="" fill="#DCDCF7" transform="translate(0,0)"/>
</svg>
